<?xml version="1.0" encoding="UTF-8"?>
<svg id="Layer_1" data-name="Layer 1" xmlns="http://www.w3.org/2000/svg" viewBox="0 0 205 205">
  <path d="M166.33,195.34l-126.47-.24c-11.98-1.2-24.02-8.8-24.05-21.44l-.22-93.74,173.86-.4v92.09c-.01,12.75-9.9,22.2-23.11,23.73ZM80.67,165.25c6.66,6.42,15.51,5.14,21.88-.88l43.25-40.94c5.61-5.31,5.47-12.96-.94-18.08-4.63-3.7-10.75-2.91-16.55,2.46l-37.95,35.13-20.08-18.81c-4.93-4.61-12.22-3.15-16.05,1.04-4.1,4.49-3.37,11.36,1.48,16.03l24.95,24.06Z"/>
  <path d="M155.75,27.11c1.49,5.58,29.52-5.18,33.23,20.11.95,6.49,1.49,12.61-.43,20.4l-171.39-.02c-2.43-7.51-2.78-16.16-.43-23.78,6.36-20.66,29.76-12.72,33.58-14.89,3.58-2.03-2.97-17.76,8.23-19.18,5.96-.76,9.66,3.31,9.42,10.01-.08,2.25-.54,8.73,2.13,8.81,22.52.68,43.85,1.29,66.36.2,5.13-.25-1.98-17.6,9.22-18.74,6.09-.62,9.68,2.61,9.39,9.94-.09,2.39.2,5.34.68,7.15Z"/>
</svg>