<?xml version="1.0" encoding="UTF-8"?>
<svg id="Layer_1" data-name="Layer 1" xmlns="http://www.w3.org/2000/svg" viewBox="0 0 1280 204.79">
  <path d="M686.47,161.6c-4.88,6.01-19.24,4.31-25.61,1.39l-57.33-82.03-1.34,82.57c-6,2.41-11.21,2.31-18.23.35l-.23-122.31c6.41-2.48,16.2-2.58,23.18-.5l58.5,83.71,1.36-82.46c4.33-4.25,13.08-2.83,19.41-1.35l.28,120.64Z"/>
  <path d="M320.57,164.63c-11.04-14.72-19.68-29.58-29.1-45.97-2-3.48-13.57-4.94-13.74-1.09l-2.01,46.27c-8.06,1.99-15.88,1.91-25.5.11l-.35-123.35c29.84.05,86.41-9.78,90.84,30.51,1.9,17.28-7.66,31.82-25.51,38.87l35.97,53.53c-9.57,3.13-19.52,1.48-30.59,1.11ZM304.98,97.3c10.32-8.64,11.21-26.93,2.13-35.71-8.44-8.16-21.17-7.11-30.8-5.21l.52,45.34c8.9.47,19.82,2.56,28.15-4.42Z"/>
  <path d="M466.41,142.77c5.87,13.54,63.21-2.64,58.93,35.14-.83,7.36-6.04,15.46-14.88,19.43-31.93,14.36-85.17,7.86-79.07-18.56,1.78-7.69,9.58-12.7,19.58-15.37-3.12-6.04-8.11-9.54-7.42-15.22.79-6.54,4.44-11.26,12.28-14.83-8.76-4.36-15.66-11.15-17.49-18.46-2.84-11.32.26-21.65,8.41-29.25,7.8-7.27,19.8-9.7,30.99-9.23l44.76,1.87c3.44.14,2.83,7.41,2.15,9.79-.79,2.78-4.99,3.29-9.34,4.83,2.2,9.32,4.23,18.05-.88,27.25-14.33,25.78-55.12,6.19-48,22.61ZM493.23,105.95c-.12-8.52-2.4-15.38-7.91-17.89-6.19-2.82-13.19-2.02-17.82,2.64-3.83,3.86-4.8,9.83-4.82,16.34-.02,10.8,6.39,19.05,16.34,18.43,8.9-.56,14.38-8.1,14.21-19.51ZM502.33,178.68c-1.68-11.84-34.16-12.28-41.75-11.03-7.12,1.17-8.54,9.88-7.73,15.23.84,5.55,6.08,10.21,13.07,10.94,12.53,1.32,38.73,1.19,36.41-15.14Z"/>
  <path d="M779.62,151.55c-17.7,20.47-53.26,20.18-70.85,1.02-15.55-16.93-14.69-48.09,1.77-64.18s48.47-17.15,65.89-1.17c16.53,15.17,18.63,46.46,3.19,64.32ZM759.61,99.69c-3.08-8.67-10.78-12.59-18.9-11.73-6.48.68-12.53,5.73-14.42,13.79-3.66,15.63-5.32,52.2,16.79,53.23,24.77,1.15,21.76-40.53,16.53-55.29Z"/>
  <path d="M389.11,149c18.71,7.6,33.64-6.96,37.48.42,6.64,12.78-41.57,27.13-65.05,6.23-16.43-14.62-18.15-43.12-6.03-61.34,13.2-19.85,42.47-24.32,61.01-10.75,11.25,8.23,13.37,23.36,11.75,36.15l-54.21,1.38c-1.77,11.32,3.97,23.4,15.05,27.9ZM403.02,108.8c4.77-1.51,1.29-12.95-1.5-16.56-3.55-4.59-10.87-7.18-17.37-3.62-7.64,4.18-10.73,13.29-9.48,21.11,10.24-1.06,19.15,2,28.36-.93Z"/>
  <path d="M823.05,163.19c-4.07,4.08-15.48,2.32-22.31.98l-.03-84.12c7.6-.73,14.22-2.58,20.76-.18,5.14,1.89,1.56,10.17,3.53,14.92,4.16-11.17,17.65-21.12,28.84-15.68,3.12,2.95,2.58,14.51-.55,17.19-15.02-.59-27.08,8.06-28.65,23.88-1.36,13.62,1.37,27.58-1.6,43Z"/>
  <path d="M1131.71,107.76c-21.51,11.31-15.09,41.37-17.07,57.74-4.37.71-10.39,1.44-12.85-1.44l-.09-62.18c0-5.18,6.35-4.62,9.74-4.33,4.64.39,2.74,6.72,4.91,13.57,6.58-8.53,14.4-15.45,26.14-15.64,31.04-.51,18.47,45.5,19.95,68.84-25.82,16.39-4.74-46.17-17.84-55.62-2.87-2.07-8.07-3.48-12.87-.95Z"/>
  <rect x="538.29" y="78.47" width="24.58" height="86.55"/>
  <path d="M903.04,135.83c-3.16,4.86,2.4,14.49,6.3,17.64,15.97,12.92,30.2-4.8,38.56-2.84-4.46,12.12-16.71,15.74-25.87,16.4-12.87.94-24.29-3.95-30.67-14.96-8.32-14.34-6.4-32.18,3.72-44.31,9.72-11.65,27.16-16.28,42.35-9.53,7.12,3.17,9.13,10.56,8.57,17.32-.58,6.97-5.6,14.18-13.62,15.48l-29.34,4.78ZM926.5,121.81c5.57-3.57,6.07-9.98,3.4-14.58-2.02-3.47-7.71-5.45-13.36-3.66-9.76,3.1-14.42,13.21-14.07,23.27,7.96.8,16.19,0,24.03-5.03Z"/>
  <path d="M1048.25,154.29c14.5,10.81,32.1-4.79,32.53-4.83,1.28-.12,4.68,2.76,3.67,4.26-5.91,8.84-16.07,12.67-26.41,13.29-21.27,1.28-34.04-14.95-33.65-34.93.46-23.21,17.18-38.53,40.7-36.43,8.67.77,16.66,5.27,18.15,13.07,1.66,8.74-1.57,17.18-10.37,20.86-10.16,4.25-20.85,3.78-32.85,5.45-1.72,7.95,3.38,15.65,8.21,19.26ZM1064.43,122.32c5.81-3.5,6.01-10.16,3.67-14.37-2-3.58-6.74-5.82-11.95-4.81-10.93,2.12-16.79,12.62-15.87,23.74,9.13.58,16.57.01,24.15-4.56Z"/>
  <path d="M1200.64,107.82c-1.78,6.82-3.49,42.98,2.01,47.75,5.16,4.47,13.64.41,17.28.44,1.6.01,4.68,3.38,3.54,4.48-5.59,5.4-13.47,7.36-21,7.22-29.16-.54-11.85-46-19.08-60.91-1.98-1.15-7.33-.74-8.35-1.79-7.99-8.18,10.79-2.95,10.71-15.42-.03-3.75-.63-8.91,1.92-10.37,2.76-1.59,10.69-3.69,11.55-.21,1.65,6.76-.66,12.02,1.42,17.83,6.29,1.46,12.08-.03,18.17,1.72,1.36.39.39,3.72-.09,4.9-1.74,4.26-17.01.3-18.07,4.37Z"/>
  <path d="M1269.29,163.6c-15.95,8-42.67,1.78-41.94-5.34,1.04-10.14,12.98,3.76,30.6-.46,4.2-1.01,7.38-3.97,7.84-7.44.45-3.4-1.49-7.57-5.52-9.21l-21.16-8.6c-7.62-3.1-11.55-9.33-11.29-16.51.29-7.89,4.57-14.88,13.33-17.5,10.62-3.17,22.39-3.22,32.75,1.69,2.7,1.28.37,9.21-1.74,8.68-5.6-1.41-32.23-9.24-31.46,4.46.79,14.05,38.73,12.16,39.31,32.54.2,6.94-2.84,13.76-10.7,17.7Z"/>
  <path d="M988.22,152.76c9.69-12.32,15.31-70.59,30.75-52.55l-25.36,63.78c-1.25,3.14-11.72,3.01-14.02.54l-23.64-65.51c2.91-2.33,13.2-3.34,14.64.96l17.63,52.78Z"/>
  <circle cx="549.87" cy="51.09" r="14.02"/>
  <circle cx="864.21" cy="157.2" r="9.86"/>
  <g>
    <path d="M151.18,185.69l-126.47-.24c-11.98-1.2-24.02-8.8-24.05-21.44l-.22-93.74,173.86-.4v92.09c-.01,12.75-9.9,22.2-23.11,23.73ZM65.52,155.6c6.66,6.42,15.51,5.14,21.88-.88l43.25-40.94c5.61-5.31,5.47-12.96-.94-18.08-4.63-3.7-10.75-2.91-16.55,2.46l-37.95,35.13-20.08-18.81c-4.93-4.61-12.22-3.15-16.05,1.04-4.1,4.49-3.37,11.36,1.48,16.03l24.95,24.06Z"/>
    <path d="M140.6,17.45c1.49,5.58,29.52-5.18,33.23,20.11.95,6.49,1.49,12.61-.43,20.4l-171.39-.02c-2.43-7.51-2.78-16.16-.43-23.78,6.36-20.66,29.76-12.72,33.58-14.89,3.58-2.03-2.97-17.76,8.23-19.18,5.96-.76,9.66,3.31,9.42,10.01-.08,2.25-.54,8.73,2.13,8.81,22.52.68,43.85,1.29,66.36.2,5.13-.25-1.98-17.6,9.22-18.74,6.09-.62,9.68,2.61,9.39,9.94-.09,2.39.2,5.34.68,7.15Z"/>
  </g>
</svg>